# xmcd
#
# Track frame offsets: 
#        150
#        14675
#        24472
#        44250
#        57727
#        83920
#        96749
#        126538
#        139031
#        158452
#
# Disc length: 2377 seconds
#
# Revision: 0
# Processed by: cddbd v1.5.2PL0 Copyright (c) Steve Scherf et al.
# Submitted via: ExactAudioCopy v1.0b1
#
DISCID=8c09470a
DTITLE=Mark Growden - Lose Me in the Sand
DYEAR=2011
DGENRE=Country
TTITLE0=You Ain't Never Been Loved
TTITLE1=Settle in a Little While
TTITLE2=Bones
TTITLE3=I'm on Fire
TTITLE4=Killing Time
TTITLE5=Lovin' Emma
TTITLE6=Takin' My Time
TTITLE7=John Hardy
TTITLE8=Shady Grove
TTITLE9=Star Spangled Benz
EXTD=
EXTT0=
EXTT1=
EXTT2=
EXTT3=
EXTT4=
EXTT5=
EXTT6=
EXTT7=
EXTT8=
EXTT9=
PLAYORDER=
